<svg width="20" height="20" viewBox="0 0 20 20" fill="none" xmlns="http://www.w3.org/2000/svg">
<path d="M5.78342 17.1915C7.01675 17.9165 8.45842 18.3332 10.0001 18.3332C14.6001 18.3332 18.3334 14.5998 18.3334 9.99984C18.3334 5.39984 14.6001 1.6665 10.0001 1.6665C5.40008 1.6665 1.66675 5.39984 1.66675 9.99984C1.66675 11.5165 2.0751 12.9415 2.78344 14.1665L1.66675 18.3332L5.78342 17.1915Z" stroke="#969696" stroke-width="1.5" stroke-miterlimit="10" stroke-linecap="round" stroke-linejoin="round"/>
<path d="M14.1666 12.6419C14.1666 12.7919 14.1332 12.9502 14.0582 13.1002C13.9832 13.2502 13.8916 13.3919 13.7749 13.5252C13.5666 13.7502 13.3416 13.9169 13.0916 14.0169C12.8416 14.1252 12.5666 14.1752 12.2749 14.1752C11.8499 14.1752 11.3916 14.0752 10.9166 13.8669C10.4332 13.6586 9.95826 13.3835 9.48326 13.0419C8.99992 12.6919 8.54991 12.3002 8.11658 11.8752C7.68324 11.4419 7.29994 10.9835 6.94994 10.5085C6.60827 10.0335 6.33324 9.55855 6.13324 9.08355C5.93324 8.60855 5.83325 8.15023 5.83325 7.71689C5.83325 7.43356 5.88325 7.15856 5.98325 6.90856C6.08325 6.65023 6.24159 6.4169 6.46659 6.20856C6.73326 5.9419 7.02491 5.81689 7.33324 5.81689C7.44991 5.81689 7.5666 5.84189 7.67494 5.89189C7.78327 5.94189 7.88324 6.01689 7.95824 6.12522L8.92494 7.49188C8.99994 7.60021 9.05823 7.69188 9.09156 7.78355C9.13323 7.87522 9.1499 7.95855 9.1499 8.04188C9.1499 8.14188 9.11658 8.24189 9.05825 8.34189C8.99991 8.44189 8.92494 8.54188 8.82494 8.64188L8.50827 8.97521C8.45827 9.02521 8.44159 9.07522 8.44159 9.14189C8.44159 9.17522 8.44994 9.20855 8.45827 9.24188C8.47494 9.27522 8.48325 9.30022 8.49159 9.32522C8.56659 9.46689 8.6999 9.64187 8.88323 9.85854C9.0749 10.0752 9.27493 10.3002 9.4916 10.5169C9.7166 10.7419 9.93325 10.9419 10.1583 11.1335C10.3749 11.3169 10.5583 11.4419 10.6999 11.5169C10.7249 11.5252 10.7499 11.5419 10.7749 11.5502C10.8082 11.5669 10.8416 11.5669 10.8832 11.5669C10.9582 11.5669 11.0083 11.5419 11.0583 11.4919L11.3749 11.1752C11.4833 11.0669 11.5833 10.9919 11.6749 10.9419C11.7749 10.8836 11.8666 10.8502 11.9749 10.8502C12.0582 10.8502 12.1416 10.8669 12.2332 10.9085C12.3249 10.9502 12.4249 11.0002 12.5249 11.0752L13.9083 12.0586C14.0166 12.1336 14.0916 12.2252 14.1416 12.3252C14.1416 12.4252 14.1666 12.5252 14.1666 12.6419Z" stroke="#969696" stroke-width="1.5" stroke-miterlimit="10"/>
</svg>
